<svg width="140" height="45" viewBox="0 0 140 45" fill="none" xmlns="http://www.w3.org/2000/svg">
<path d="M0 37.5089V36.7992L1.88915 36.6415L9.274 14.3573H9.97658L17.6112 36.6415L19.6721 36.7992V37.5089H11.3193V36.7992L13.427 36.6415L11.5847 30.9798H4.59016L2.77908 36.6415L4.88681 36.7992V37.5089H0ZM4.87119 30.0335L11.2412 29.9074L8.11866 20.2241H8.05621L4.87119 30.0335Z" fill="#FF725E"/>
<path d="M19.8595 22.9367V22.2901L23.1226 21.9431L25.324 21.3596L25.5425 21.8169V23.8671H25.605C26.1983 22.8473 26.8228 22.1481 27.4785 21.7696C28.1343 21.3911 28.9201 21.2019 29.8361 21.2019C30.0755 21.2019 30.3305 21.2282 30.6011 21.2807C30.8717 21.3333 31.184 21.4384 31.5379 21.5961C31.9022 21.7433 32.2508 21.9378 32.5839 22.1797C32.917 22.4215 33.2449 22.7579 33.5675 23.189C33.9006 23.6201 34.1868 24.1142 34.4262 24.6714C34.6656 25.2182 34.8582 25.9016 35.0039 26.7216C35.16 27.5417 35.2381 28.4459 35.2381 29.4342C35.2381 30.6223 35.0924 31.7263 34.8009 32.7461C34.5095 33.7554 34.0827 34.6544 33.5207 35.4429C32.9586 36.2314 32.2196 36.8518 31.3037 37.3039C30.3877 37.756 29.3417 37.982 28.1655 37.982C27.1351 37.982 26.2816 37.7139 25.605 37.1777V44.1957L27.2131 44.3534V45H20.1717V44.3534L21.7799 44.1957V22.9367H19.8595ZM25.605 36.3418C26.1983 36.878 26.8384 37.1461 27.5254 37.1461C28.025 37.1461 28.4673 37.0463 28.8525 36.8465C29.248 36.6467 29.5706 36.3997 29.8205 36.1053C30.0807 35.8109 30.3044 35.4271 30.4918 34.954C30.6792 34.4704 30.8197 34.0183 30.9133 33.5977C31.007 33.1666 31.0799 32.6567 31.1319 32.068C31.184 31.4792 31.2152 30.9903 31.2256 30.6013C31.236 30.2123 31.2412 29.7496 31.2412 29.2134C31.2412 27.5102 31.1215 26.1486 30.8821 25.1288C30.6427 24.0984 30.3305 23.3993 29.9454 23.0313C29.5602 22.6528 29.0762 22.4635 28.4934 22.4635C27.6815 22.4635 26.9945 22.8946 26.4325 23.7567C25.8808 24.6189 25.605 25.5862 25.605 26.6586V36.3418Z" fill="#FF725E"/>
<path d="M37.7986 29.5919C37.7986 28.7719 37.8767 27.9728 38.0328 27.1948C38.1889 26.4062 38.4439 25.6492 38.7978 24.9238C39.1517 24.1983 39.5837 23.5622 40.0937 23.0155C40.6037 22.4688 41.2334 22.0325 41.9828 21.7065C42.7427 21.3701 43.5805 21.2019 44.4965 21.2019C45.3604 21.2019 46.1358 21.328 46.8228 21.5804C47.5098 21.8222 48.0822 22.1639 48.5402 22.6055C48.9982 23.0471 49.3781 23.5885 49.6799 24.2299C49.9818 24.8607 50.1952 25.5494 50.3201 26.2958C50.4554 27.0318 50.523 27.8414 50.523 28.7245L50.1015 29.1188H41.7955V30.0808C41.7955 34.6649 43.0861 36.9569 45.6674 36.9569C47.4993 36.9569 48.9617 36.0317 50.0546 34.1812L50.6635 34.5597C49.3208 36.8412 47.4109 37.982 44.9336 37.982C42.5397 37.982 40.7494 37.2355 39.5628 35.7425C38.3867 34.2496 37.7986 32.1994 37.7986 29.5919ZM41.7955 28.4091L46.8384 28.2041C46.8696 27.6679 46.8852 27.1527 46.8852 26.6586C46.8852 25.1341 46.7031 23.9618 46.3388 23.1417C45.9849 22.3216 45.3916 21.9116 44.5589 21.9116C44.0593 21.9116 43.6274 22.0798 43.2631 22.4162C42.9092 22.7422 42.6334 23.2153 42.4356 23.8356C42.2378 24.4559 42.0869 25.1341 41.9828 25.87C41.8891 26.5955 41.8267 27.4418 41.7955 28.4091Z" fill="#FF725E"/>
<path d="M52.7557 22.9367V22.2901L56.0187 21.9431L58.2201 21.3596L58.4387 21.8169V24.5295H58.5012C58.7093 24.109 58.9644 23.6989 59.2662 23.2994C59.568 22.8999 59.8959 22.5476 60.2498 22.2427C60.6141 21.9273 60.9992 21.675 61.4052 21.4857C61.8111 21.2965 62.2222 21.2019 62.6386 21.2019C63.4504 21.2019 64.0749 21.4227 64.5121 21.8642C64.9597 22.2953 65.1835 22.8736 65.1835 23.599C65.1835 23.9039 65.1366 24.1878 65.0429 24.4507C64.9493 24.703 64.8139 24.9238 64.637 25.113C64.4705 25.3023 64.2623 25.4547 64.0125 25.5704C63.7731 25.6755 63.5077 25.7281 63.2162 25.7281C62.904 25.7281 62.623 25.6755 62.3731 25.5704C62.1233 25.4652 61.91 25.3233 61.733 25.1446C61.5665 24.9658 61.4364 24.7608 61.3427 24.5295C61.249 24.2877 61.2022 24.0301 61.2022 23.7567C61.2022 23.1995 61.3167 22.7895 61.5457 22.5266V22.432C61.171 22.5161 60.8015 22.7159 60.4372 23.0313C60.0833 23.3467 59.7606 23.7778 59.4692 24.3245C59.1777 24.8607 58.9435 25.5126 58.7666 26.2801C58.5896 27.0371 58.5012 27.8939 58.5012 28.8507V36.7046L60.1093 36.8623V37.5089H53.0679V36.8623L54.676 36.7046V22.9367H52.7557Z" fill="#FF725E"/>
<path d="M66.3076 22.9367V22.2901L69.5706 21.9431L71.7721 21.3596L72.0531 21.8169V36.7046L73.6612 36.8623V37.5089H66.6198V36.8623L68.2279 36.7046V22.9367H66.3076ZM68.0094 15.7609C68.0094 15.4666 68.0614 15.1932 68.1655 14.9409C68.28 14.6885 68.4309 14.4677 68.6183 14.2785C68.8056 14.0892 69.0242 13.942 69.274 13.8369C69.5238 13.7318 69.7892 13.6792 70.0703 13.6792C70.3513 13.6792 70.6167 13.737 70.8665 13.8527C71.1163 13.9578 71.3349 14.105 71.5222 14.2943C71.72 14.4835 71.8709 14.7043 71.975 14.9566C72.0895 15.209 72.1468 15.4771 72.1468 15.7609C72.1468 16.0448 72.0895 16.3129 71.975 16.5653C71.8709 16.8176 71.7252 17.0436 71.5379 17.2434C71.3505 17.4326 71.1319 17.5851 70.8821 17.7008C70.6323 17.8059 70.3617 17.8585 70.0703 17.8585C69.7788 17.8585 69.5082 17.8059 69.2584 17.7008C69.0086 17.5851 68.79 17.4326 68.6027 17.2434C68.4153 17.0542 68.2696 16.8334 68.1655 16.581C68.0614 16.3287 68.0094 16.0553 68.0094 15.7609Z" fill="#FF725E"/>
<path d="M74.6448 22.3531V21.675H77.299V18.1896L78.6417 18.0477L80.8431 17.4642L81.1397 17.9215V21.675H84.5589V22.3531L81.1397 22.4951V33.5977C81.1397 34.2391 81.2126 34.7753 81.3583 35.2063C81.5144 35.6269 81.7122 35.916 81.9516 36.0737C82.2014 36.2314 82.3992 36.3313 82.5449 36.3734C82.701 36.4154 82.8623 36.4365 83.0289 36.4365C83.3515 36.4365 83.6586 36.3681 83.95 36.2314C84.2519 36.0842 84.5225 35.874 84.7619 35.6006C85.0117 35.3272 85.2147 35.0802 85.3708 34.8594C85.5269 34.6281 85.7039 34.3495 85.9016 34.0235L86.573 34.4336C86.0213 35.3588 85.5425 36.0317 85.1366 36.4522C84.1478 37.4721 83.0081 37.982 81.7174 37.982C81.2282 37.982 80.791 37.9452 80.4059 37.8716C80.0312 37.8085 79.6409 37.6666 79.235 37.4458C78.829 37.225 78.4908 36.9306 78.2201 36.5626C77.9495 36.1841 77.7257 35.6689 77.5488 35.0171C77.3823 34.3547 77.299 33.5819 77.299 32.6988V22.4951L74.6448 22.3531Z" fill="#FF725E"/>
<path d="M87.2287 22.9367V22.2901L90.4918 21.9431L92.6932 21.3596L92.9742 21.8169V36.7046L94.5824 36.8623V37.5089H87.541V36.8623L89.1491 36.7046V22.9367H87.2287ZM88.9305 15.7609C88.9305 15.4666 88.9826 15.1932 89.0867 14.9409C89.2011 14.6885 89.3521 14.4677 89.5394 14.2785C89.7268 14.0892 89.9454 13.942 90.1952 13.8369C90.445 13.7318 90.7104 13.6792 90.9914 13.6792C91.2724 13.6792 91.5379 13.737 91.7877 13.8527C92.0375 13.9578 92.256 14.105 92.4434 14.2943C92.6412 14.4835 92.7921 14.7043 92.8962 14.9566C93.0107 15.209 93.0679 15.4771 93.0679 15.7609C93.0679 16.0448 93.0107 16.3129 92.8962 16.5653C92.7921 16.8176 92.6464 17.0436 92.459 17.2434C92.2717 17.4326 92.0531 17.5851 91.8033 17.7008C91.5535 17.8059 91.2828 17.8585 90.9914 17.8585C90.7 17.8585 90.4294 17.8059 90.1795 17.7008C89.9297 17.5851 89.7112 17.4326 89.5238 17.2434C89.3365 17.0542 89.1907 16.8334 89.0867 16.581C88.9826 16.3287 88.9305 16.0553 88.9305 15.7609Z" fill="#FF725E"/>
<path d="M95.3005 22.3216V21.675H102.685V22.3216L100.999 22.4951L104.684 32.4307H104.746L108.119 22.4951L106.401 22.3216V21.675H110.679V22.3216L109.055 22.4951L103.825 37.6666H103.107L96.8462 22.4951L95.3005 22.3216Z" fill="#FF725E"/>
<path d="M111.351 29.6866C111.351 28.099 111.652 26.6586 112.256 25.3654C112.87 24.0722 113.724 23.0576 114.817 22.3216C115.92 21.5751 117.164 21.2019 118.548 21.2019C119.693 21.2019 120.723 21.4437 121.639 21.9273C122.566 22.4005 123.305 23.0365 123.856 23.8356C124.418 24.6346 124.845 25.5283 125.137 26.5166C125.438 27.4944 125.589 28.5195 125.589 29.5919C125.589 31.1375 125.298 32.5463 124.715 33.8185C124.132 35.0907 123.294 36.1053 122.201 36.8623C121.119 37.6088 119.891 37.982 118.517 37.982C117.299 37.982 116.222 37.7665 115.285 37.3354C114.359 36.8938 113.609 36.2893 113.037 35.5218C112.475 34.7437 112.053 33.8658 111.772 32.888C111.491 31.9102 111.351 30.8431 111.351 29.6866ZM115.347 29.4973C115.347 30.6643 115.405 31.7105 115.519 32.6357C115.634 33.5504 115.811 34.3652 116.05 35.0802C116.289 35.7846 116.612 36.3261 117.018 36.7046C117.424 37.0831 117.903 37.2723 118.454 37.2723C120.546 37.2723 121.593 34.7437 121.593 29.6866C121.593 28.4144 121.54 27.3209 121.436 26.4062C121.343 25.4915 121.176 24.6872 120.937 23.9933C120.708 23.2889 120.385 22.7684 119.969 22.432C119.552 22.085 119.048 21.9116 118.454 21.9116C117.903 21.9116 117.424 22.1008 117.018 22.4793C116.612 22.8578 116.289 23.394 116.05 24.0879C115.811 24.7818 115.634 25.5756 115.519 26.4693C115.405 27.363 115.347 28.3723 115.347 29.4973Z" fill="#FF725E"/>
<path d="M133.38 37.2092C134.567 37.2092 135.441 36.9884 136.003 36.5469C136.576 36.1053 136.862 35.5533 136.862 34.8909C136.862 34.544 136.805 34.2391 136.69 33.9762C136.586 33.7029 136.409 33.4453 136.159 33.2034C135.92 32.9511 135.597 32.6988 135.191 32.4464C134.796 32.1836 134.301 31.8892 133.708 31.5633C133.188 31.2584 132.636 30.943 132.053 30.617C131.47 30.2806 130.929 29.8968 130.429 29.4658C129.94 29.0242 129.529 28.5143 129.196 27.936C128.873 27.3577 128.712 26.6638 128.712 25.8543C128.712 25.1393 128.847 24.4927 129.118 23.9144C129.388 23.3362 129.763 22.8473 130.242 22.4478C130.731 22.0377 131.309 21.7223 131.975 21.5015C132.652 21.2807 133.391 21.1703 134.192 21.1703C134.796 21.1703 135.399 21.2492 136.003 21.4069C136.617 21.5541 137.169 21.7801 137.658 22.085C138.147 22.3899 138.543 22.7684 138.845 23.2205C139.146 23.6726 139.297 24.1983 139.297 24.7976C139.297 25.0289 139.256 25.255 139.173 25.4758C139.1 25.6965 138.985 25.8963 138.829 26.075C138.673 26.2538 138.48 26.401 138.251 26.5166C138.033 26.6218 137.778 26.6743 137.486 26.6743C136.883 26.6743 136.43 26.5061 136.128 26.1697C135.826 25.8332 135.675 25.4232 135.675 24.9395C135.675 24.6346 135.717 24.3771 135.8 24.1668C135.883 23.946 135.993 23.7673 136.128 23.6306C136.274 23.4834 136.435 23.3782 136.612 23.3152C136.799 23.2416 136.987 23.2048 137.174 23.2048H137.315V23.1732C137.211 23.005 137.06 22.8473 136.862 22.7001C136.664 22.5424 136.43 22.4057 136.159 22.2901C135.889 22.1639 135.587 22.064 135.254 21.9904C134.921 21.9168 134.567 21.88 134.192 21.88C133.64 21.88 133.172 21.9536 132.787 22.1008C132.402 22.248 132.084 22.4372 131.835 22.6686C131.595 22.8893 131.418 23.1364 131.304 23.4098C131.189 23.6831 131.132 23.946 131.132 24.1983C131.132 24.5032 131.179 24.7661 131.272 24.9869C131.366 25.2077 131.527 25.4337 131.756 25.665C131.996 25.8858 132.319 26.1276 132.724 26.3905C133.141 26.6533 133.661 26.9687 134.286 27.3367C134.889 27.6521 135.524 27.9886 136.19 28.346C136.867 28.7035 137.486 29.1188 138.048 29.5919C138.61 30.0545 139.074 30.5908 139.438 31.2006C139.813 31.7998 140 32.5043 140 33.3138C140 33.9972 139.87 34.6228 139.61 35.1906C139.36 35.7583 138.964 36.2472 138.423 36.6573C137.892 37.0673 137.211 37.3827 136.378 37.6035C135.556 37.8348 134.577 37.9505 133.443 37.9505C132.901 37.9505 132.324 37.8821 131.71 37.7454C131.096 37.6088 130.528 37.3932 130.008 37.0988C129.487 36.7939 129.055 36.4049 128.712 35.9318C128.368 35.4482 128.197 34.8594 128.197 34.1655C128.197 33.8711 128.244 33.5872 128.337 33.3138C128.431 33.0405 128.561 32.7987 128.728 32.5884C128.904 32.3676 129.118 32.1941 129.368 32.068C129.617 31.9418 129.904 31.8787 130.226 31.8787C130.507 31.8787 130.757 31.9313 130.976 32.0364C131.194 32.131 131.377 32.2625 131.522 32.4307C131.678 32.5884 131.798 32.7776 131.881 32.9984C131.965 33.2192 132.011 33.4558 132.022 33.7081C132.022 34.0025 131.97 34.2653 131.866 34.4967C131.762 34.7174 131.626 34.9014 131.46 35.0486C131.293 35.1958 131.101 35.3115 130.882 35.3956C130.674 35.4692 130.466 35.506 130.258 35.506C130.216 35.506 130.169 35.506 130.117 35.506C130.075 35.506 130.034 35.5007 129.992 35.4902V35.5218C130.086 35.732 130.226 35.9371 130.414 36.1368C130.601 36.3366 130.835 36.5153 131.116 36.673C131.408 36.8307 131.741 36.9622 132.116 37.0673C132.501 37.1619 132.922 37.2092 133.38 37.2092Z" fill="#FF725E"/>
<path d="M32.7847 7.55086C32.7847 9.18014 32.3475 10.0172 31.4731 10.0622C31.2545 10.0622 31.0468 10.006 30.8501 9.89365C30.9375 11.8713 30.9812 13.7983 30.9812 15.6748C30.9812 17.5513 30.6369 18.8828 29.9483 19.6693C29.5548 20.1188 29.0466 20.3435 28.4235 20.3435C27.8114 20.3547 27.3469 20.1356 27.0299 19.6862C26.7129 19.2479 26.5544 18.8153 26.5544 18.3884C26.5763 17.8603 26.9042 17.5906 27.5382 17.5793C27.9426 17.5793 28.1175 17.8659 28.0628 18.4389C28.0082 19.012 28.1393 19.2985 28.4563 19.2985C29.0466 19.2985 29.4073 18.5288 29.5384 16.9894C29.604 16.2815 29.6313 15.2984 29.6204 14.0399C29.6204 12.7814 29.522 12.1465 29.3253 12.1353C29.2378 12.1353 29.1176 12.287 28.9646 12.5904C28.8116 12.8825 28.4399 13.4893 27.8497 14.4107C27.2704 15.3321 26.7676 16.0175 26.3413 16.4669C25.915 16.9164 25.6363 17.1636 25.5051 17.2085C25.1991 17.3209 25.0242 17.2198 24.9805 16.9052C24.9914 16.5681 25.1608 16.1748 25.4887 15.7253C26.6692 14.1185 27.806 12.2645 28.899 10.1633C29.1504 9.68016 29.2761 9.39925 29.2761 9.32059V6.89353C29.2761 6.43284 29.4947 6.07889 29.9319 5.83169C30.1177 5.73056 30.2926 5.68 30.4566 5.68C31.1343 5.69124 31.7628 5.89911 32.3421 6.30362C32.6153 6.50587 32.7574 6.7306 32.7683 6.9778C32.7793 7.225 32.7847 7.41602 32.7847 7.55086ZM30.7189 8.68012C31.0905 8.6127 31.3037 8.48348 31.3583 8.29246C31.4239 8.09021 31.4567 7.89357 31.4567 7.70255C31.4567 7.5003 31.4458 7.3486 31.4239 7.24748C31.096 7.24748 30.8719 7.48344 30.7517 7.95537C30.708 8.11268 30.6861 8.25875 30.6861 8.39359C30.6861 8.52843 30.697 8.62393 30.7189 8.68012Z" fill="#455A64"/>
<path d="M37.0889 7.5003C36.5424 7.59019 35.8374 8.99474 34.9739 11.7139C34.1104 14.4332 33.6786 16.04 33.6786 16.5344C33.6786 17.0288 33.7223 17.276 33.8098 17.276C34.2689 17.276 34.9848 16.2647 35.9576 14.2421C36.9304 12.2083 37.4168 10.3487 37.4168 8.66326C37.4168 7.89919 37.3075 7.51153 37.0889 7.5003ZM36.8266 5.41033C37.1326 5.41033 37.3949 5.50022 37.6136 5.68C37.9961 6.01709 38.1874 6.6688 38.1874 7.63513C38.1874 12.051 37.4223 15.3602 35.892 17.5625L35.6625 17.9164C34.7115 19.3322 33.9464 20.0401 33.3671 20.0401C32.6566 19.9615 32.2467 19.4277 32.1374 18.4389C32.1374 17.6187 32.4599 15.9557 33.1048 13.45C33.7606 10.9443 34.5093 8.77563 35.351 6.94409C35.8319 5.93282 36.3238 5.42156 36.8266 5.41033Z" fill="#455A64"/>
<path d="M39.5076 20.3772C39.5076 21.2874 39.6824 22.1638 40.0322 23.0065C40.6225 24.4223 41.4969 25.1302 42.6555 25.1302C43.5627 25.1302 44.3224 24.8886 44.9345 24.4055C45.5575 23.9335 46.2898 23.1526 47.1315 22.0627C47.3938 21.7143 47.6671 21.5964 47.9513 21.7087C48.2355 21.8098 48.3775 22.0402 48.3775 22.3998C48.3775 23.456 47.7654 24.3605 46.5412 25.1133C45.328 25.8662 44.1694 26.2426 43.0654 26.2426C39.7972 26.2426 38.1631 24.2538 38.1631 20.2761C38.1631 18.5344 38.4801 16.7198 39.1141 14.832L39.278 14.3433C41.322 8.32055 42.9069 4.28107 44.0327 2.22481C44.8197 0.741602 45.6723 0 46.5904 0C47.8911 0.0112364 48.5524 0.494401 48.5743 1.4495C48.5743 2.04502 48.1863 2.98888 47.4102 4.28107C46.6342 5.56202 45.0766 7.80368 42.7375 11.0061C42.1472 11.6915 41.6226 12.4668 41.1635 13.332C40.0595 15.4669 39.5076 17.8153 39.5076 20.3772ZM42.5243 9.11834C42.6883 9.1071 43.4425 7.89357 44.7869 5.47774C46.1423 3.05068 46.8145 1.79782 46.8036 1.71917C46.7926 1.62928 46.7489 1.58433 46.6724 1.58433C46.5959 1.5731 46.5467 1.57871 46.5249 1.60119C46.1642 1.82591 45.399 3.02259 44.2295 5.19122C43.0709 7.3486 42.4916 8.62955 42.4916 9.03406C42.4916 9.06777 42.5025 9.09586 42.5243 9.11834Z" fill="#455A64"/>
<path d="M49.8617 7.5003C49.3152 7.59019 48.6101 8.99474 47.7466 11.7139C46.8831 14.4332 46.4514 16.04 46.4514 16.5344C46.4514 17.0288 46.4951 17.276 46.5826 17.276C47.0416 17.276 47.7576 16.2647 48.7304 14.2421C49.7032 12.2083 50.1896 10.3487 50.1896 8.66326C50.1896 7.89919 50.0803 7.51153 49.8617 7.5003ZM49.5993 5.41033C49.9054 5.41033 50.1677 5.50022 50.3863 5.68C50.7689 6.01709 50.9602 6.6688 50.9602 7.63513C50.9602 12.051 50.195 15.3602 48.6648 17.5625L48.4353 17.9164C47.4843 19.3322 46.7192 20.0401 46.1399 20.0401C45.4294 19.9615 45.0195 19.4277 44.9102 18.4389C44.9102 17.6187 45.2327 15.9557 45.8776 13.45C46.5334 10.9443 47.2821 8.77563 48.1237 6.94409C48.6047 5.93282 49.0965 5.42156 49.5993 5.41033Z" fill="#455A64"/>
</svg>
